<svg viewBox="0 0 64 64" xmlns="http://www.w3.org/2000/svg"><g id="Running_Shoes" data-name="Running Shoes"><path d="m63.01 39.17c0-2.169-.9187-9.0981-12.191-10.6806-.0564-.008-.1134-.0166-.17-.0242-.4829-.0649-.9776-.1236-1.4986-.1682-4.9873-.4258-9.8858-3.9912-14.208-7.1367-.7746-.5638-1.5193-1.1044-2.2393-1.61-.0692-.0487-.14-.1-.209-.1477l-.0261-.0179a17.1138 17.1138 0 0 0 -5.588-2.9214 4.08 4.08 0 0 0 -2.8916.3292q-.8488.4565-1.6541.8362a21.758 21.758 0 0 1 -4.3537 1.5734c-.0164.0038-.03.0126-.0464.0171a8.9 8.9 0 0 1 -4.813-.0161 5.6476 5.6476 0 0 1 -3.3789-3.1723 3.2927 3.2927 0 0 0 -2.1173-1.8052 3.2641 3.2641 0 0 0 -4.0693 3.5034c.3553 3.0448 1.37 13.4141-.4845 19.0459l-.0009.0015a16.8107 16.8107 0 0 1 -1.4863 3.3281 4.0584 4.0584 0 0 0 -.474 3.1372 3.9506 3.9506 0 0 0 1.8808 2.4448 26.8341 26.8341 0 0 0 15.294 3.3316 150.9227 150.9227 0 0 1 21.5029.4443c3.0371.2222 5.6592.4141 7.8447.4277l.1065.0005c4.7646-.0005 10.0625-2.0669 12.917-5.0464a7.6939 7.6939 0 0 0 2.3525-5.6642zm-41.7462-18.906c.03-.0116.0612-.0258.0911-.0375.49-.1921.9963-.4112 1.5112-.6467.1267-.058.2535-.1164.3814-.1769.5517-.2607 1.1116-.5366 1.689-.8453 1.0167-.551 2.6258.0867 4.516 1.24l-1.8177 1.5345a1 1 0 0 0 1.291 1.5283l2.2736-1.9193c.6495.4489 1.3183.93 1.9973 1.4232l-1.9467 1.6543a1 1 0 0 0 1.2949 1.5244l2.3172-1.9687c.6543.4732 1.3206.948 1.9979 1.4165l-1.4889 1.2118a1 1 0 1 0 1.2617 1.5508l1.966-1.6c.69.4444 1.39.8719 2.1007 1.2739l-1.345 1.0927a1 1 0 0 0 1.2617 1.5528l2.0158-1.637a18.52 18.52 0 0 0 6.3485 1.8586c.0615.005.1216.0118.1828.0173.1623.0148.3094.0369.4673.0539a14.1937 14.1937 0 0 1 -13.4665 1.2326 55.5568 55.5568 0 0 1 -16.1075-10.9c.3934-.1291.7961-.2749 1.2072-.4342zm-15.1495-3.9412a1.1729 1.1729 0 0 1 .9824-.1685 1.2937 1.2937 0 0 1 .8291.7153 7.6765 7.6765 0 0 0 4.5615 4.2304 10.49 10.49 0 0 0 5.3655.1711 56.8369 56.8369 0 0 0 17.5261 12.1659 16.17 16.17 0 0 0 16.9931-2.6489c7.0176 1.5293 8.4149 5.48 8.61 7.7534a41.7841 41.7841 0 0 1 -27.3736 1.2085c-2.1946-.6348-4.3086-1.1512-6.3641-1.6-2.9195-6.8333-9.7028-11.9121-17.8566-13.3058l-3.3013-.5642c-.12-2.7631-.362-5.223-.5444-6.7838a1.2349 1.2349 0 0 1 .5723-1.1734zm-.0986 15.1506 1.9345.3318a16.8646 16.8646 0 0 1 9.1551 4.6917 86.877 86.877 0 0 0 -9.118-.5047c-.9268 0-1.8066.0161-2.6338.0439a29.6413 29.6413 0 0 0 .6622-4.5627zm14.0223 5.3824a18.4768 18.4768 0 0 0 -11.7489-7.0218l-2.1647-.3714c.0353-1.0518.0408-2.1066.0234-3.1427l2.903.496c6.9609 1.19 12.8188 5.2725 15.7432 10.8325-1.6379-.3134-3.2284-.5804-4.756-.7926zm39.1739 6.6042c-2.4853 2.5943-7.3721 4.4468-11.5664 4.43-2.1182-.0131-4.71-.2026-7.7109-.4223a153.1306 153.1306 0 0 0 -21.78-.4458 24.8607 24.8607 0 0 1 -14.167-3.07 1.9691 1.9691 0 0 1 -.9414-1.2133 2.0815 2.0815 0 0 1 .2546-1.6086 18.2474 18.2474 0 0 0 1.4322-3.0659 86.1518 86.1518 0 0 1 21.5005 1.9c.0108.0033.0222.0036.0331.0066 2.1787.4627 4.4443 1.0231 6.7871 1.7007a45.943 45.943 0 0 0 12.7463 1.8237 41.4037 41.4037 0 0 0 15.03-2.7175 6.4163 6.4163 0 0 1 -1.6181 2.6824z"></path></g></svg>